<svg width="141" height="140" viewBox="0 0 141 140" fill="none" xmlns="http://www.w3.org/2000/svg">
<g clip-path="url(#clip0_688_562)">
<path d="M110.78 76.79H107.58V79.99H110.78V76.79Z" fill="#010101"/>
<path d="M110.78 73.59H107.58V76.79H110.78V73.59Z" fill="#010101"/>
<path d="M110.78 70.39H107.58V73.59H110.78V70.39Z" fill="#010101"/>
<path d="M110.78 67.19H107.58V70.39H110.78V67.19Z" fill="#010101"/>
<path d="M110.78 63.99H107.58V67.19H110.78V63.99Z" fill="#010101"/>
<path d="M107.58 83.19H104.38V86.39H107.58V83.19Z" fill="#010101"/>
<path d="M107.58 79.99H104.38V83.19H107.58V79.99Z" fill="#010101"/>
<path d="M107.58 76.79H104.38V79.99H107.58V76.79Z" fill="#DDDDDD"/>
<path d="M107.58 73.59H104.38V76.79H107.58V73.59Z" fill="#DDDDDD"/>
<path d="M107.58 70.39H104.38V73.59H107.58V70.39Z" fill="#DDDDDD"/>
<path d="M107.58 67.19H104.38V70.39H107.58V67.19Z" fill="#DDDDDD"/>
<path d="M107.58 63.99H104.38V67.19H107.58V63.99Z" fill="#DDDDDD"/>
<path d="M107.58 60.79H104.38V63.99H107.58V60.79Z" fill="#010101"/>
<path d="M107.58 57.58H104.38V60.78H107.58V57.58Z" fill="#010101"/>
<path d="M104.38 89.59H101.18V92.79H104.38V89.59Z" fill="#010101"/>
<path d="M104.38 86.39H101.18V89.59H104.38V86.39Z" fill="#010101"/>
<path d="M104.38 83.19H101.18V86.39H104.38V83.19Z" fill="#DDDDDD"/>
<path d="M104.38 79.99H101.18V83.19H104.38V79.99Z" fill="#DDDDDD"/>
<path d="M104.38 76.79H101.18V79.99H104.38V76.79Z" fill="white"/>
<path d="M104.38 73.59H101.18V76.79H104.38V73.59Z" fill="white"/>
<path d="M104.38 70.39H101.18V73.59H104.38V70.39Z" fill="white"/>
<path d="M104.38 67.19H101.18V70.39H104.38V67.19Z" fill="white"/>
<path d="M104.38 63.99H101.18V67.19H104.38V63.99Z" fill="white"/>
<path d="M104.38 60.79H101.18V63.99H104.38V60.79Z" fill="#DDDDDD"/>
<path d="M104.38 57.58H101.18V60.78H104.38V57.58Z" fill="#DDDDDD"/>
<path d="M104.38 54.38H101.18V57.58H104.38V54.38Z" fill="#010101"/>
<path d="M104.38 51.18H101.18V54.38H104.38V51.18Z" fill="#010101"/>
<path d="M101.18 92.79H97.98V95.99H101.18V92.79Z" fill="#010101"/>
<path d="M101.18 89.59H97.98V92.79H101.18V89.59Z" fill="#DDDDDD"/>
<path d="M101.18 86.39H97.98V89.59H101.18V86.39Z" fill="#DDDDDD"/>
<path d="M101.18 83.19H97.98V86.39H101.18V83.19Z" fill="white"/>
<path d="M101.18 79.99H97.98V83.19H101.18V79.99Z" fill="white"/>
<path d="M101.18 76.79H97.98V79.99H101.18V76.79Z" fill="#B2B3B3"/>
<path d="M101.18 73.59H97.98V76.79H101.18V73.59Z" fill="#B2B3B3"/>
<path d="M101.18 70.39H97.98V73.59H101.18V70.39Z" fill="#B2B3B3"/>
<path d="M101.18 67.19H97.98V70.39H101.18V67.19Z" fill="#B2B3B3"/>
<path d="M101.18 63.99H97.98V67.19H101.18V63.99Z" fill="#B2B3B3"/>
<path d="M101.18 60.79H97.98V63.99H101.18V60.79Z" fill="white"/>
<path d="M101.18 57.58H97.98V60.78H101.18V57.58Z" fill="white"/>
<path d="M101.18 54.38H97.98V57.58H101.18V54.38Z" fill="#DDDDDD"/>
<path d="M101.18 51.18H97.98V54.38H101.18V51.18Z" fill="#DDDDDD"/>
<path d="M101.18 47.98H97.98V51.18H101.18V47.98Z" fill="#010101"/>
<path d="M97.98 95.99H94.78V99.19H97.98V95.99Z" fill="#010101"/>
<path d="M97.98 92.79H94.78V95.99H97.98V92.79Z" fill="#DDDDDD"/>
<path d="M97.98 89.59H94.78V92.79H97.98V89.59Z" fill="white"/>
<path d="M97.98 86.39H94.78V89.59H97.98V86.39Z" fill="white"/>
<path d="M97.98 83.19H94.78V86.39H97.98V83.19Z" fill="#B2B3B3"/>
<path d="M97.98 79.99H94.78V83.19H97.98V79.99Z" fill="#B2B3B3"/>
<path d="M97.98 76.79H94.78V79.99H97.98V76.79Z" fill="white"/>
<path d="M97.98 73.59H94.78V76.79H97.98V73.59Z" fill="white"/>
<path d="M97.98 70.39H94.78V73.59H97.98V70.39Z" fill="white"/>
<path d="M97.98 67.19H94.78V70.39H97.98V67.19Z" fill="white"/>
<path d="M97.98 63.99H94.78V67.19H97.98V63.99Z" fill="white"/>
<path d="M97.98 60.79H94.78V63.99H97.98V60.79Z" fill="#B2B3B3"/>
<path d="M97.98 57.58H94.78V60.78H97.98V57.58Z" fill="#B2B3B3"/>
<path d="M97.98 54.38H94.78V57.58H97.98V54.38Z" fill="white"/>
<path d="M97.98 51.18H94.78V54.38H97.98V51.18Z" fill="white"/>
<path d="M97.98 47.98H94.78V51.18H97.98V47.98Z" fill="#DDDDDD"/>
<path d="M97.98 44.78H94.78V47.98H97.98V44.78Z" fill="#010101"/>
<path d="M94.7801 99.2H91.5801V102.4H94.7801V99.2Z" fill="#010101"/>
<path d="M94.7801 95.99H91.5801V99.19H94.7801V95.99Z" fill="#DDDDDD"/>
<path d="M94.7801 92.79H91.5801V95.99H94.7801V92.79Z" fill="white"/>
<path d="M94.7801 89.59H91.5801V92.79H94.7801V89.59Z" fill="#B2B3B3"/>
<path d="M94.7801 86.39H91.5801V89.59H94.7801V86.39Z" fill="#B2B3B3"/>
<path d="M94.7801 83.19H91.5801V86.39H94.7801V83.19Z" fill="white"/>
<path d="M94.7801 79.99H91.5801V83.19H94.7801V79.99Z" fill="white"/>
<path d="M94.7801 76.79H91.5801V79.99H94.7801V76.79Z" fill="white"/>
<path d="M94.7801 73.59H91.5801V76.79H94.7801V73.59Z" fill="white"/>
<path d="M94.7801 70.39H91.5801V73.59H94.7801V70.39Z" fill="white"/>
<path d="M94.7801 67.19H91.5801V70.39H94.7801V67.19Z" fill="white"/>
<path d="M94.7801 63.99H91.5801V67.19H94.7801V63.99Z" fill="white"/>
<path d="M94.7801 60.79H91.5801V63.99H94.7801V60.79Z" fill="white"/>
<path d="M94.7801 57.58H91.5801V60.78H94.7801V57.58Z" fill="white"/>
<path d="M94.7801 54.38H91.5801V57.58H94.7801V54.38Z" fill="#B2B3B3"/>
<path d="M94.7801 51.18H91.5801V54.38H94.7801V51.18Z" fill="#B2B3B3"/>
<path d="M94.7801 47.98H91.5801V51.18H94.7801V47.98Z" fill="white"/>
<path d="M94.7801 44.78H91.5801V47.98H94.7801V44.78Z" fill="#DDDDDD"/>
<path d="M94.7801 41.58H91.5801V44.78H94.7801V41.58Z" fill="#010101"/>
<path d="M91.5799 99.2H88.3799V102.4H91.5799V99.2Z" fill="#010101"/>
<path d="M91.5799 95.99H88.3799V99.19H91.5799V95.99Z" fill="#DDDDDD"/>
<path d="M91.5799 92.79H88.3799V95.99H91.5799V92.79Z" fill="white"/>
<path d="M91.5799 89.59H88.3799V92.79H91.5799V89.59Z" fill="#B2B3B3"/>
<path d="M91.5799 86.39H88.3799V89.59H91.5799V86.39Z" fill="white"/>
<path d="M91.5799 83.19H88.3799V86.39H91.5799V83.19Z" fill="white"/>
<path d="M91.5799 79.99H88.3799V83.19H91.5799V79.99Z" fill="white"/>
<path d="M91.5799 76.79H88.3799V79.99H91.5799V76.79Z" fill="white"/>
<path d="M91.5799 73.59H88.3799V76.79H91.5799V73.59Z" fill="white"/>
<path d="M91.5799 70.39H88.3799V73.59H91.5799V70.39Z" fill="white"/>
<path d="M91.5799 67.19H88.3799V70.39H91.5799V67.19Z" fill="white"/>
<path d="M91.5799 63.99H88.3799V67.19H91.5799V63.99Z" fill="white"/>
<path d="M91.5799 60.79H88.3799V63.99H91.5799V60.79Z" fill="white"/>
<path d="M91.5799 57.58H88.3799V60.78H91.5799V57.58Z" fill="white"/>
<path d="M91.5799 54.38H88.3799V57.58H91.5799V54.38Z" fill="white"/>
<path d="M91.5799 51.18H88.3799V54.38H91.5799V51.18Z" fill="#B2B3B3"/>
<path d="M91.5799 47.98H88.3799V51.18H91.5799V47.98Z" fill="white"/>
<path d="M91.5799 44.78H88.3799V47.98H91.5799V44.78Z" fill="#DDDDDD"/>
<path d="M91.5799 41.58H88.3799V44.78H91.5799V41.58Z" fill="#010101"/>
<path d="M88.3799 102.4H85.1799V105.6H88.3799V102.4Z" fill="#010101"/>
<path d="M88.3799 99.2H85.1799V102.4H88.3799V99.2Z" fill="#DDDDDD"/>
<path d="M88.3799 95.99H85.1799V99.19H88.3799V95.99Z" fill="white"/>
<path d="M88.3799 92.79H85.1799V95.99H88.3799V92.79Z" fill="#B2B3B3"/>
<path d="M88.3799 89.59H85.1799V92.79H88.3799V89.59Z" fill="white"/>
<path d="M88.3799 86.39H85.1799V89.59H88.3799V86.39Z" fill="white"/>
<path d="M88.3799 83.19H85.1799V86.39H88.3799V83.19Z" fill="white"/>
<path d="M88.3799 79.99H85.1799V83.19H88.3799V79.99Z" fill="white"/>
<path d="M88.3799 76.79H85.1799V79.99H88.3799V76.79Z" fill="white"/>
<path d="M88.3799 73.59H85.1799V76.79H88.3799V73.59Z" fill="white"/>
<path d="M88.3799 70.39H85.1799V73.59H88.3799V70.39Z" fill="white"/>
<path d="M88.3799 67.19H85.1799V70.39H88.3799V67.19Z" fill="white"/>
<path d="M88.3799 63.99H85.1799V67.19H88.3799V63.99Z" fill="white"/>
<path d="M88.3799 60.79H85.1799V63.99H88.3799V60.79Z" fill="white"/>
<path d="M88.3799 57.58H85.1799V60.78H88.3799V57.58Z" fill="white"/>
<path d="M88.3799 54.38H85.1799V57.58H88.3799V54.38Z" fill="white"/>
<path d="M88.3799 51.18H85.1799V54.38H88.3799V51.18Z" fill="white"/>
<path d="M88.3799 47.98H85.1799V51.18H88.3799V47.98Z" fill="#B2B3B3"/>
<path d="M88.3799 44.78H85.1799V47.98H88.3799V44.78Z" fill="white"/>
<path d="M88.3799 41.58H85.1799V44.78H88.3799V41.58Z" fill="#DDDDDD"/>
<path d="M88.3799 38.38H85.1799V41.58H88.3799V38.38Z" fill="#010101"/>
<path d="M85.18 102.4H81.98V105.6H85.18V102.4Z" fill="#010101"/>
<path d="M85.18 99.2H81.98V102.4H85.18V99.2Z" fill="#DDDDDD"/>
<path d="M85.18 95.99H81.98V99.19H85.18V95.99Z" fill="white"/>
<path d="M85.18 92.79H81.98V95.99H85.18V92.79Z" fill="#B2B3B3"/>
<path d="M85.18 89.59H81.98V92.79H85.18V89.59Z" fill="white"/>
<path d="M85.18 86.39H81.98V89.59H85.18V86.39Z" fill="white"/>
<path d="M85.18 83.19H81.98V86.39H85.18V83.19Z" fill="white"/>
<path d="M85.18 79.99H81.98V83.19H85.18V79.99Z" fill="white"/>
<path d="M85.18 76.79H81.98V79.99H85.18V76.79Z" fill="white"/>
<path d="M85.18 73.59H81.98V76.79H85.18V73.59Z" fill="white"/>
<path d="M85.18 70.39H81.98V73.59H85.18V70.39Z" fill="white"/>
<path d="M85.18 67.19H81.98V70.39H85.18V67.19Z" fill="white"/>
<path d="M85.18 63.99H81.98V67.19H85.18V63.99Z" fill="white"/>
<path d="M85.18 60.79H81.98V63.99H85.18V60.79Z" fill="white"/>
<path d="M85.18 57.58H81.98V60.78H85.18V57.58Z" fill="white"/>
<path d="M85.18 54.38H81.98V57.58H85.18V54.38Z" fill="white"/>
<path d="M85.18 51.18H81.98V54.38H85.18V51.18Z" fill="white"/>
<path d="M85.18 47.98H81.98V51.18H85.18V47.98Z" fill="#B2B3B3"/>
<path d="M85.18 44.78H81.98V47.98H85.18V44.78Z" fill="white"/>
<path d="M85.18 41.58H81.98V44.78H85.18V41.58Z" fill="#DDDDDD"/>
<path d="M85.18 38.38H81.98V41.58H85.18V38.38Z" fill="#010101"/>
<path d="M81.98 105.6H78.78V108.8H81.98V105.6Z" fill="#010101"/>
<path d="M81.98 102.4H78.78V105.6H81.98V102.4Z" fill="#DDDDDD"/>
<path d="M81.98 99.2H78.78V102.4H81.98V99.2Z" fill="white"/>
<path d="M81.98 95.99H78.78V99.19H81.98V95.99Z" fill="#B2B3B3"/>
<path d="M81.98 92.79H78.78V95.99H81.98V92.79Z" fill="white"/>
<path d="M81.98 89.59H78.78V92.79H81.98V89.59Z" fill="white"/>
<path d="M81.98 86.39H78.78V89.59H81.98V86.39Z" fill="white"/>
<path d="M81.98 83.19H78.78V86.39H81.98V83.19Z" fill="white"/>
<path d="M81.98 79.99H78.78V83.19H81.98V79.99Z" fill="white"/>
<path d="M81.98 76.79H78.78V79.99H81.98V76.79Z" fill="white"/>
<path d="M81.98 73.59H78.78V76.79H81.98V73.59Z" fill="white"/>
<path d="M81.98 70.39H78.78V73.59H81.98V70.39Z" fill="white"/>
<path d="M81.98 67.19H78.78V70.39H81.98V67.19Z" fill="white"/>
<path d="M81.98 63.99H78.78V67.19H81.98V63.99Z" fill="white"/>
<path d="M81.98 60.79H78.78V63.99H81.98V60.79Z" fill="white"/>
<path d="M81.98 57.58H78.78V60.78H81.98V57.58Z" fill="white"/>
<path d="M81.98 54.38H78.78V57.58H81.98V54.38Z" fill="white"/>
<path d="M81.98 51.18H78.78V54.38H81.98V51.18Z" fill="white"/>
<path d="M81.98 47.98H78.78V51.18H81.98V47.98Z" fill="white"/>
<path d="M81.98 44.78H78.78V47.98H81.98V44.78Z" fill="#B2B3B3"/>
<path d="M81.98 41.58H78.78V44.78H81.98V41.58Z" fill="white"/>
<path d="M81.98 38.38H78.78V41.58H81.98V38.38Z" fill="#DDDDDD"/>
<path d="M81.98 35.18H78.78V38.38H81.98V35.18Z" fill="#010101"/>
<path d="M78.7801 105.6H75.5801V108.8H78.7801V105.6Z" fill="#010101"/>
<path d="M78.7801 102.4H75.5801V105.6H78.7801V102.4Z" fill="#DDDDDD"/>
<path d="M78.7801 99.2H75.5801V102.4H78.7801V99.2Z" fill="white"/>
<path d="M78.7801 95.99H75.5801V99.19H78.7801V95.99Z" fill="#B2B3B3"/>
<path d="M78.7801 92.79H75.5801V95.99H78.7801V92.79Z" fill="white"/>
<path d="M78.7801 89.59H75.5801V92.79H78.7801V89.59Z" fill="white"/>
<path d="M78.7801 86.39H75.5801V89.59H78.7801V86.39Z" fill="white"/>
<path d="M78.7801 83.19H75.5801V86.39H78.7801V83.19Z" fill="white"/>
<path d="M78.7801 79.99H75.5801V83.19H78.7801V79.99Z" fill="white"/>
<path d="M78.7801 76.79H75.5801V79.99H78.7801V76.79Z" fill="white"/>
<path d="M78.7801 73.59H75.5801V76.79H78.7801V73.59Z" fill="white"/>
<path d="M78.7801 70.39H75.5801V73.59H78.7801V70.39Z" fill="white"/>
<path d="M78.7801 67.19H75.5801V70.39H78.7801V67.19Z" fill="white"/>
<path d="M78.7801 63.99H75.5801V67.19H78.7801V63.99Z" fill="white"/>
<path d="M78.7801 60.79H75.5801V63.99H78.7801V60.79Z" fill="white"/>
<path d="M78.7801 57.58H75.5801V60.78H78.7801V57.58Z" fill="white"/>
<path d="M78.7801 54.38H75.5801V57.58H78.7801V54.38Z" fill="white"/>
<path d="M78.7801 51.18H75.5801V54.38H78.7801V51.18Z" fill="white"/>
<path d="M78.7801 47.98H75.5801V51.18H78.7801V47.98Z" fill="white"/>
<path d="M78.7801 44.78H75.5801V47.98H78.7801V44.78Z" fill="#B2B3B3"/>
<path d="M78.7801 41.58H75.5801V44.78H78.7801V41.58Z" fill="white"/>
<path d="M78.7801 38.38H75.5801V41.58H78.7801V38.38Z" fill="#DDDDDD"/>
<path d="M78.7801 35.18H75.5801V38.38H78.7801V35.18Z" fill="#010101"/>
<path d="M75.5699 105.6H72.3699V108.8H75.5699V105.6Z" fill="#010101"/>
<path d="M75.5699 102.4H72.3699V105.6H75.5699V102.4Z" fill="#DDDDDD"/>
<path d="M75.5699 99.2H72.3699V102.4H75.5699V99.2Z" fill="white"/>
<path d="M75.5699 95.99H72.3699V99.19H75.5699V95.99Z" fill="#B2B3B3"/>
<path d="M75.5699 92.79H72.3699V95.99H75.5699V92.79Z" fill="white"/>
<path d="M75.5699 89.59H72.3699V92.79H75.5699V89.59Z" fill="#DDDDDD"/>
<path d="M75.5699 86.39H72.3699V89.59H75.5699V86.39Z" fill="white"/>
<path d="M75.5699 83.19H72.3699V86.39H75.5699V83.19Z" fill="white"/>
<path d="M75.5699 79.99H72.3699V83.19H75.5699V79.99Z" fill="white"/>
<path d="M75.5699 76.79H72.3699V79.99H75.5699V76.79Z" fill="white"/>
<path d="M75.5699 73.59H72.3699V76.79H75.5699V73.59Z" fill="white"/>
<path d="M75.5699 70.39H72.3699V73.59H75.5699V70.39Z" fill="white"/>
<path d="M75.5699 67.19H72.3699V70.39H75.5699V67.19Z" fill="white"/>
<path d="M75.5699 63.99H72.3699V67.19H75.5699V63.99Z" fill="white"/>
<path d="M75.5699 60.79H72.3699V63.99H75.5699V60.79Z" fill="white"/>
<path d="M75.5699 57.58H72.3699V60.78H75.5699V57.58Z" fill="#DDDDDD"/>
<path d="M75.5699 54.38H72.3699V57.58H75.5699V54.38Z" fill="#DDDDDD"/>
<path d="M75.5699 51.18H72.3699V54.38H75.5699V51.18Z" fill="white"/>
<path d="M75.5699 47.98H72.3699V51.18H75.5699V47.98Z" fill="white"/>
<path d="M75.5699 44.78H72.3699V47.98H75.5699V44.78Z" fill="#B2B3B3"/>
<path d="M75.5699 41.58H72.3699V44.78H75.5699V41.58Z" fill="white"/>
<path d="M75.5699 38.38H72.3699V41.58H75.5699V38.38Z" fill="#DDDDDD"/>
<path d="M75.5699 35.18H72.3699V38.38H75.5699V35.18Z" fill="#010101"/>
<path d="M72.3699 105.6H69.1699V108.8H72.3699V105.6Z" fill="#010101"/>
<path d="M72.3699 102.4H69.1699V105.6H72.3699V102.4Z" fill="#DDDDDD"/>
<path d="M72.3699 99.2H69.1699V102.4H72.3699V99.2Z" fill="white"/>
<path d="M72.3699 95.99H69.1699V99.19H72.3699V95.99Z" fill="#B2B3B3"/>
<path d="M72.3699 92.79H69.1699V95.99H72.3699V92.79Z" fill="white"/>
<path d="M72.3699 89.59H69.1699V92.79H72.3699V89.59Z" fill="#DDDDDD"/>
<path d="M72.3699 86.39H69.1699V89.59H72.3699V86.39Z" fill="#DDDDDD"/>
<path d="M72.3699 83.19H69.1699V86.39H72.3699V83.19Z" fill="#DDDDDD"/>
<path d="M72.3699 79.99H69.1699V83.19H72.3699V79.99Z" fill="white"/>
<path d="M72.3699 76.79H69.1699V79.99H72.3699V76.79Z" fill="white"/>
<path d="M72.3699 73.59H69.1699V76.79H72.3699V73.59Z" fill="white"/>
<path d="M72.3699 70.39H69.1699V73.59H72.3699V70.39Z" fill="white"/>
<path d="M72.3699 67.19H69.1699V70.39H72.3699V67.19Z" fill="white"/>
<path d="M72.3699 63.99H69.1699V67.19H72.3699V63.99Z" fill="white"/>
<path d="M72.3699 60.79H69.1699V63.99H72.3699V60.79Z" fill="#DDDDDD"/>
<path d="M72.3699 57.58H69.1699V60.78H72.3699V57.58Z" fill="#DDDDDD"/>
<path d="M72.3699 54.38H69.1699V57.58H72.3699V54.38Z" fill="#DDDDDD"/>
<path d="M72.3699 51.18H69.1699V54.38H72.3699V51.18Z" fill="#DDDDDD"/>
<path d="M72.3699 47.98H69.1699V51.18H72.3699V47.98Z" fill="white"/>
<path d="M72.3699 44.78H69.1699V47.98H72.3699V44.78Z" fill="#B2B3B3"/>
<path d="M72.3699 41.58H69.1699V44.78H72.3699V41.58Z" fill="white"/>
<path d="M72.3699 38.38H69.1699V41.58H72.3699V38.38Z" fill="#DDDDDD"/>
<path d="M72.3699 35.18H69.1699V38.38H72.3699V35.18Z" fill="#010101"/>
<path d="M69.17 105.6H65.97V108.8H69.17V105.6Z" fill="#010101"/>
<path d="M69.17 102.4H65.97V105.6H69.17V102.4Z" fill="#DDDDDD"/>
<path d="M69.17 99.2H65.97V102.4H69.17V99.2Z" fill="white"/>
<path d="M69.17 95.99H65.97V99.19H69.17V95.99Z" fill="#B2B3B3"/>
<path d="M69.17 92.79H65.97V95.99H69.17V92.79Z" fill="white"/>
<path d="M69.17 89.59H65.97V92.79H69.17V89.59Z" fill="#DDDDDD"/>
<path d="M69.17 86.39H65.97V89.59H69.17V86.39Z" fill="#DDDDDD"/>
<path d="M69.17 83.19H65.97V86.39H69.17V83.19Z" fill="#DDDDDD"/>
<path d="M69.17 79.99H65.97V83.19H69.17V79.99Z" fill="#DDDDDD"/>
<path d="M69.17 76.79H65.97V79.99H69.17V76.79Z" fill="white"/>
<path d="M69.17 73.59H65.97V76.79H69.17V73.59Z" fill="white"/>
<path d="M69.17 70.39H65.97V73.59H69.17V70.39Z" fill="white"/>
<path d="M69.17 67.19H65.97V70.39H69.17V67.19Z" fill="white"/>
<path d="M69.17 63.99H65.97V67.19H69.17V63.99Z" fill="#DDDDDD"/>
<path d="M69.17 60.79H65.97V63.99H69.17V60.79Z" fill="#DDDDDD"/>
<path d="M69.17 57.58H65.97V60.78H69.17V57.58Z" fill="#DDDDDD"/>
<path d="M69.17 54.38H65.97V57.58H69.17V54.38Z" fill="#DDDDDD"/>
<path d="M69.17 51.18H65.97V54.38H69.17V51.18Z" fill="#DDDDDD"/>
<path d="M69.17 47.98H65.97V51.18H69.17V47.98Z" fill="white"/>
<path d="M69.17 44.78H65.97V47.98H69.17V44.78Z" fill="#B2B3B3"/>
<path d="M69.17 41.58H65.97V44.78H69.17V41.58Z" fill="white"/>
<path d="M69.17 38.38H65.97V41.58H69.17V38.38Z" fill="#DDDDDD"/>
<path d="M69.17 35.18H65.97V38.38H69.17V35.18Z" fill="#010101"/>
<path d="M65.97 105.6H62.77V108.8H65.97V105.6Z" fill="#010101"/>
<path d="M65.97 102.4H62.77V105.6H65.97V102.4Z" fill="#DDDDDD"/>
<path d="M65.97 99.2H62.77V102.4H65.97V99.2Z" fill="white"/>
<path d="M65.97 95.99H62.77V99.19H65.97V95.99Z" fill="#B2B3B3"/>
<path d="M65.97 92.79H62.77V95.99H65.97V92.79Z" fill="white"/>
<path d="M65.97 89.59H62.77V92.79H65.97V89.59Z" fill="#DDDDDD"/>
<path d="M65.97 86.39H62.77V89.59H65.97V86.39Z" fill="#DDDDDD"/>
<path d="M65.97 83.19H62.77V86.39H65.97V83.19Z" fill="#DDDDDD"/>
<path d="M65.97 79.99H62.77V83.19H65.97V79.99Z" fill="#DDDDDD"/>
<path d="M65.97 76.79H62.77V79.99H65.97V76.79Z" fill="#DDDDDD"/>
<path d="M65.97 73.59H62.77V76.79H65.97V73.59Z" fill="#DDDDDD"/>
<path d="M65.97 70.39H62.77V73.59H65.97V70.39Z" fill="#DDDDDD"/>
<path d="M65.97 67.19H62.77V70.39H65.97V67.19Z" fill="#DDDDDD"/>
<path d="M65.97 63.99H62.77V67.19H65.97V63.99Z" fill="#DDDDDD"/>
<path d="M65.97 60.79H62.77V63.99H65.97V60.79Z" fill="#DDDDDD"/>
<path d="M65.97 57.58H62.77V60.78H65.97V57.58Z" fill="#DDDDDD"/>
<path d="M65.97 54.38H62.77V57.58H65.97V54.38Z" fill="#DDDDDD"/>
<path d="M65.97 51.18H62.77V54.38H65.97V51.18Z" fill="#DDDDDD"/>
<path d="M65.97 47.98H62.77V51.18H65.97V47.98Z" fill="white"/>
<path d="M65.97 44.78H62.77V47.98H65.97V44.78Z" fill="#B2B3B3"/>
<path d="M65.97 41.58H62.77V44.78H65.97V41.58Z" fill="white"/>
<path d="M65.97 38.38H62.77V41.58H65.97V38.38Z" fill="#DDDDDD"/>
<path d="M65.97 35.18H62.77V38.38H65.97V35.18Z" fill="#010101"/>
<path d="M62.7701 102.4H59.5701V105.6H62.7701V102.4Z" fill="#010101"/>
<path d="M62.7701 99.2H59.5701V102.4H62.7701V99.2Z" fill="#DDDDDD"/>
<path d="M62.7701 95.99H59.5701V99.19H62.7701V95.99Z" fill="white"/>
<path d="M62.7701 92.79H59.5701V95.99H62.7701V92.79Z" fill="#B2B3B3"/>
<path d="M62.7701 89.59H59.5701V92.79H62.7701V89.59Z" fill="white"/>
<path d="M62.7701 86.39H59.5701V89.59H62.7701V86.39Z" fill="#DDDDDD"/>
<path d="M62.7701 83.19H59.5701V86.39H62.7701V83.19Z" fill="#DDDDDD"/>
<path d="M62.7701 79.99H59.5701V83.19H62.7701V79.99Z" fill="#DDDDDD"/>
<path d="M62.7701 76.79H59.5701V79.99H62.7701V76.79Z" fill="#DDDDDD"/>
<path d="M62.7701 73.59H59.5701V76.79H62.7701V73.59Z" fill="#DDDDDD"/>
<path d="M62.7701 70.39H59.5701V73.59H62.7701V70.39Z" fill="#DDDDDD"/>
<path d="M62.7701 67.19H59.5701V70.39H62.7701V67.19Z" fill="#DDDDDD"/>
<path d="M62.7701 63.99H59.5701V67.19H62.7701V63.99Z" fill="#DDDDDD"/>
<path d="M62.7701 60.79H59.5701V63.99H62.7701V60.79Z" fill="#DDDDDD"/>
<path d="M62.7701 57.58H59.5701V60.78H62.7701V57.58Z" fill="#DDDDDD"/>
<path d="M62.7701 54.38H59.5701V57.58H62.7701V54.38Z" fill="#DDDDDD"/>
<path d="M62.7701 51.18H59.5701V54.38H62.7701V51.18Z" fill="white"/>
<path d="M62.7701 47.98H59.5701V51.18H62.7701V47.98Z" fill="#B2B3B3"/>
<path d="M62.7701 44.78H59.5701V47.98H62.7701V44.78Z" fill="white"/>
<path d="M62.7701 41.58H59.5701V44.78H62.7701V41.58Z" fill="#DDDDDD"/>
<path d="M62.7701 38.38H59.5701V41.58H62.7701V38.38Z" fill="#010101"/>
<path d="M59.5699 102.4H56.3699V105.6H59.5699V102.4Z" fill="#010101"/>
<path d="M59.5699 99.2H56.3699V102.4H59.5699V99.2Z" fill="#DDDDDD"/>
<path d="M59.5699 95.99H56.3699V99.19H59.5699V95.99Z" fill="white"/>
<path d="M59.5699 92.79H56.3699V95.99H59.5699V92.79Z" fill="#B2B3B3"/>
<path d="M59.5699 89.59H56.3699V92.79H59.5699V89.59Z" fill="white"/>
<path d="M59.5699 86.39H56.3699V89.59H59.5699V86.39Z" fill="#DDDDDD"/>
<path d="M59.5699 83.19H56.3699V86.39H59.5699V83.19Z" fill="#DDDDDD"/>
<path d="M59.5699 79.99H56.3699V83.19H59.5699V79.99Z" fill="#DDDDDD"/>
<path d="M59.5699 76.79H56.3699V79.99H59.5699V76.79Z" fill="#DDDDDD"/>
<path d="M59.5699 73.59H56.3699V76.79H59.5699V73.59Z" fill="#DDDDDD"/>
<path d="M59.5699 70.39H56.3699V73.59H59.5699V70.39Z" fill="#DDDDDD"/>
<path d="M59.5699 67.19H56.3699V70.39H59.5699V67.19Z" fill="#DDDDDD"/>
<path d="M59.5699 63.99H56.3699V67.19H59.5699V63.99Z" fill="#DDDDDD"/>
<path d="M59.5699 60.79H56.3699V63.99H59.5699V60.79Z" fill="#DDDDDD"/>
<path d="M59.5699 57.58H56.3699V60.78H59.5699V57.58Z" fill="#DDDDDD"/>
<path d="M59.5699 54.38H56.3699V57.58H59.5699V54.38Z" fill="#DDDDDD"/>
<path d="M59.5699 51.18H56.3699V54.38H59.5699V51.18Z" fill="white"/>
<path d="M59.5699 47.98H56.3699V51.18H59.5699V47.98Z" fill="#B2B3B3"/>
<path d="M59.5699 44.78H56.3699V47.98H59.5699V44.78Z" fill="white"/>
<path d="M59.5699 41.58H56.3699V44.78H59.5699V41.58Z" fill="#DDDDDD"/>
<path d="M59.5699 38.38H56.3699V41.58H59.5699V38.38Z" fill="#010101"/>
<path d="M56.3699 99.2H53.1699V102.4H56.3699V99.2Z" fill="#010101"/>
<path d="M56.3699 95.99H53.1699V99.19H56.3699V95.99Z" fill="#DDDDDD"/>
<path d="M56.3699 92.79H53.1699V95.99H56.3699V92.79Z" fill="white"/>
<path d="M56.3699 89.59H53.1699V92.79H56.3699V89.59Z" fill="#B2B3B3"/>
<path d="M56.3699 86.39H53.1699V89.59H56.3699V86.39Z" fill="white"/>
<path d="M56.3699 83.19H53.1699V86.39H56.3699V83.19Z" fill="#DDDDDD"/>
<path d="M56.3699 79.99H53.1699V83.19H56.3699V79.99Z" fill="#DDDDDD"/>
<path d="M56.3699 76.79H53.1699V79.99H56.3699V76.79Z" fill="#DDDDDD"/>
<path d="M56.3699 73.59H53.1699V76.79H56.3699V73.59Z" fill="#DDDDDD"/>
<path d="M56.3699 70.39H53.1699V73.59H56.3699V70.39Z" fill="#DDDDDD"/>
<path d="M56.3699 67.19H53.1699V70.39H56.3699V67.19Z" fill="#DDDDDD"/>
<path d="M56.3699 63.99H53.1699V67.19H56.3699V63.99Z" fill="#DDDDDD"/>
<path d="M56.3699 60.79H53.1699V63.99H56.3699V60.79Z" fill="#DDDDDD"/>
<path d="M56.3699 57.58H53.1699V60.78H56.3699V57.58Z" fill="#DDDDDD"/>
<path d="M56.3699 54.38H53.1699V57.58H56.3699V54.38Z" fill="white"/>
<path d="M56.3699 51.18H53.1699V54.38H56.3699V51.18Z" fill="#B2B3B3"/>
<path d="M56.3699 47.98H53.1699V51.18H56.3699V47.98Z" fill="white"/>
<path d="M56.3699 44.78H53.1699V47.98H56.3699V44.78Z" fill="#DDDDDD"/>
<path d="M56.3699 41.58H53.1699V44.78H56.3699V41.58Z" fill="#010101"/>
<path d="M53.17 99.2H49.97V102.4H53.17V99.2Z" fill="#010101"/>
<path d="M53.17 95.99H49.97V99.19H53.17V95.99Z" fill="#DDDDDD"/>
<path d="M53.17 92.79H49.97V95.99H53.17V92.79Z" fill="white"/>
<path d="M53.17 89.59H49.97V92.79H53.17V89.59Z" fill="#B2B3B3"/>
<path d="M53.17 86.39H49.97V89.59H53.17V86.39Z" fill="#B2B3B3"/>
<path d="M53.17 83.19H49.97V86.39H53.17V83.19Z" fill="white"/>
<path d="M53.17 79.99H49.97V83.19H53.17V79.99Z" fill="white"/>
<path d="M53.17 76.79H49.97V79.99H53.17V76.79Z" fill="#DDDDDD"/>
<path d="M53.17 73.59H49.97V76.79H53.17V73.59Z" fill="#DDDDDD"/>
<path d="M53.17 70.39H49.97V73.59H53.17V70.39Z" fill="#DDDDDD"/>
<path d="M53.17 67.19H49.97V70.39H53.17V67.19Z" fill="#DDDDDD"/>
<path d="M53.17 63.99H49.97V67.19H53.17V63.99Z" fill="#DDDDDD"/>
<path d="M53.17 60.79H49.97V63.99H53.17V60.79Z" fill="white"/>
<path d="M53.17 57.58H49.97V60.78H53.17V57.58Z" fill="white"/>
<path d="M53.17 54.38H49.97V57.58H53.17V54.38Z" fill="#B2B3B3"/>
<path d="M53.17 51.18H49.97V54.38H53.17V51.18Z" fill="#B2B3B3"/>
<path d="M53.17 47.98H49.97V51.18H53.17V47.98Z" fill="white"/>
<path d="M53.17 44.78H49.97V47.98H53.17V44.78Z" fill="#DDDDDD"/>
<path d="M53.17 41.58H49.97V44.78H53.17V41.58Z" fill="#010101"/>
<path d="M49.97 95.99H46.77V99.19H49.97V95.99Z" fill="#010101"/>
<path d="M49.97 92.79H46.77V95.99H49.97V92.79Z" fill="#DDDDDD"/>
<path d="M49.97 89.59H46.77V92.79H49.97V89.59Z" fill="white"/>
<path d="M49.97 86.39H46.77V89.59H49.97V86.39Z" fill="white"/>
<path d="M49.97 83.19H46.77V86.39H49.97V83.19Z" fill="#B2B3B3"/>
<path d="M49.97 79.99H46.77V83.19H49.97V79.99Z" fill="#B2B3B3"/>
<path d="M49.97 76.79H46.77V79.99H49.97V76.79Z" fill="white"/>
<path d="M49.97 73.59H46.77V76.79H49.97V73.59Z" fill="white"/>
<path d="M49.97 70.39H46.77V73.59H49.97V70.39Z" fill="white"/>
<path d="M49.97 67.19H46.77V70.39H49.97V67.19Z" fill="white"/>
<path d="M49.97 63.99H46.77V67.19H49.97V63.99Z" fill="white"/>
<path d="M49.97 60.79H46.77V63.99H49.97V60.79Z" fill="#B2B3B3"/>
<path d="M49.97 57.58H46.77V60.78H49.97V57.58Z" fill="#B2B3B3"/>
<path d="M49.97 54.38H46.77V57.58H49.97V54.38Z" fill="white"/>
<path d="M49.97 51.18H46.77V54.38H49.97V51.18Z" fill="white"/>
<path d="M49.97 47.98H46.77V51.18H49.97V47.98Z" fill="#DDDDDD"/>
<path d="M49.97 44.78H46.77V47.98H49.97V44.78Z" fill="#010101"/>
<path d="M46.7701 92.79H43.5701V95.99H46.7701V92.79Z" fill="#010101"/>
<path d="M46.7701 89.59H43.5701V92.79H46.7701V89.59Z" fill="#DDDDDD"/>
<path d="M46.7701 86.39H43.5701V89.59H46.7701V86.39Z" fill="#DDDDDD"/>
<path d="M46.7701 83.19H43.5701V86.39H46.7701V83.19Z" fill="white"/>
<path d="M46.7701 79.99H43.5701V83.19H46.7701V79.99Z" fill="white"/>
<path d="M46.7701 76.79H43.5701V79.99H46.7701V76.79Z" fill="#B2B3B3"/>
<path d="M46.7701 73.59H43.5701V76.79H46.7701V73.59Z" fill="#B2B3B3"/>
<path d="M46.7701 70.39H43.5701V73.59H46.7701V70.39Z" fill="#B2B3B3"/>
<path d="M46.7701 67.19H43.5701V70.39H46.7701V67.19Z" fill="#B2B3B3"/>
<path d="M46.7701 63.99H43.5701V67.19H46.7701V63.99Z" fill="#B2B3B3"/>
<path d="M46.7701 60.79H43.5701V63.99H46.7701V60.79Z" fill="white"/>
<path d="M46.7701 57.58H43.5701V60.78H46.7701V57.58Z" fill="white"/>
<path d="M46.7701 54.38H43.5701V57.58H46.7701V54.38Z" fill="#DDDDDD"/>
<path d="M46.7701 51.18H43.5701V54.38H46.7701V51.18Z" fill="#DDDDDD"/>
<path d="M46.7701 47.98H43.5701V51.18H46.7701V47.98Z" fill="#010101"/>
<path d="M43.5599 89.59H40.3599V92.79H43.5599V89.59Z" fill="#010101"/>
<path d="M43.5599 86.39H40.3599V89.59H43.5599V86.39Z" fill="#010101"/>
<path d="M43.5599 83.19H40.3599V86.39H43.5599V83.19Z" fill="#DDDDDD"/>
<path d="M43.5599 79.99H40.3599V83.19H43.5599V79.99Z" fill="#DDDDDD"/>
<path d="M43.5599 76.79H40.3599V79.99H43.5599V76.79Z" fill="white"/>
<path d="M43.5599 73.59H40.3599V76.79H43.5599V73.59Z" fill="white"/>
<path d="M43.5599 70.39H40.3599V73.59H43.5599V70.39Z" fill="white"/>
<path d="M43.5599 67.19H40.3599V70.39H43.5599V67.19Z" fill="white"/>
<path d="M43.5599 63.99H40.3599V67.19H43.5599V63.99Z" fill="white"/>
<path d="M43.5599 60.79H40.3599V63.99H43.5599V60.79Z" fill="#DDDDDD"/>
<path d="M43.5599 57.58H40.3599V60.78H43.5599V57.58Z" fill="#DDDDDD"/>
<path d="M43.5599 54.38H40.3599V57.58H43.5599V54.38Z" fill="#010101"/>
<path d="M43.5599 51.18H40.3599V54.38H43.5599V51.18Z" fill="#010101"/>
<path d="M40.3599 83.19H37.1599V86.39H40.3599V83.19Z" fill="#010101"/>
<path d="M40.3599 79.99H37.1599V83.19H40.3599V79.99Z" fill="#010101"/>
<path d="M40.3599 76.79H37.1599V79.99H40.3599V76.79Z" fill="#DDDDDD"/>
<path d="M40.3599 73.59H37.1599V76.79H40.3599V73.59Z" fill="#DDDDDD"/>
<path d="M40.3599 70.39H37.1599V73.59H40.3599V70.39Z" fill="#DDDDDD"/>
<path d="M40.3599 67.19H37.1599V70.39H40.3599V67.19Z" fill="#DDDDDD"/>
<path d="M40.3599 63.99H37.1599V67.19H40.3599V63.99Z" fill="#DDDDDD"/>
<path d="M40.3599 60.79H37.1599V63.99H40.3599V60.79Z" fill="#010101"/>
<path d="M40.3599 57.58H37.1599V60.78H40.3599V57.58Z" fill="#010101"/>
<path d="M37.16 76.79H33.96V79.99H37.16V76.79Z" fill="#010101"/>
<path d="M37.16 73.59H33.96V76.79H37.16V73.59Z" fill="#010101"/>
<path d="M37.16 70.39H33.96V73.59H37.16V70.39Z" fill="#010101"/>
<path d="M37.16 67.19H33.96V70.39H37.16V67.19Z" fill="#010101"/>
<path d="M37.16 63.99H33.96V67.19H37.16V63.99Z" fill="#010101"/>
<path d="M73.45 79.1H69.74V82.81H73.45V79.1Z" fill="#BE1E2D"/>
<path d="M77.16 79.1H73.45V82.81H77.16V79.1Z" fill="#BE1E2D"/>
<path d="M80.8702 75.39H77.1602V79.1H80.8702V75.39Z" fill="#BE1E2D"/>
<path d="M69.74 79.1H66.03V82.81H69.74V79.1Z" fill="#BE1E2D"/>
<path d="M66.0301 75.39H62.3201V79.1H66.0301V75.39Z" fill="#BE1E2D"/>
<path d="M63.6301 64.16H67.3401V60.45H63.6301V64.16Z" fill="#BE1E2D"/>
<path d="M63.6301 67.87H67.3401V64.16H63.6301V67.87Z" fill="#BE1E2D"/>
<path d="M75.84 64.16H79.55V60.45H75.84V64.16Z" fill="#BE1E2D"/>
<path d="M75.84 67.87H79.55V64.16H75.84V67.87Z" fill="#BE1E2D"/>
<path d="M31.01 101.32C31.07 101.03 30.93 100.76 30.85 100.5C28.85 93.91 26.86 87.33 24.86 80.74C23.47 76.17 22.09 71.61 20.7 67.04C20.62 66.78 20.59 66.48 20.33 66.3C19.84 66.13 19.39 66.66 18.84 66.38C17.93 63.43 17.05 60.44 16.13 57.49C15.49 57.45 15.04 57.58 14.66 57.88C14.55 58.21 14.67 58.45 14.75 58.71C15.51 61.22 16.27 63.74 17.03 66.25C17.1 66.47 17.23 66.68 17.09 66.92C16.77 67.19 16.39 67.27 15.99 67.27C15.96 67.24 15.95 67.21 15.93 67.19C15.88 67.35 15.82 67.5 15.75 67.65C15.79 67.73 15.86 67.75 15.95 67.76C16.38 67.76 16.76 67.46 17.2 67.55C17.43 67.8 17.47 68.1 17.55 68.38C21.04 79.87 24.52 91.36 28.01 102.85C28.11 103.18 28.15 103.54 28.43 103.79C29.03 103.9 29.51 103.64 29.97 103.39C30.16 102.85 29.73 102.43 29.83 101.96C30.17 101.64 30.73 101.76 31 101.33L31.01 101.32Z" fill="#C2C7CD"/>
<path d="M15.7201 67.6C15.7601 67.67 15.7601 67.68 15.8401 67.67C16.1101 67.84 16.1501 68.13 16.2301 68.4C17.0201 70.98 17.8001 73.55 18.5801 76.13C21.3501 85.26 24.1201 94.39 26.8901 103.52C26.9501 103.73 27.0301 103.93 27.0601 104.14C27.2301 104.65 27.3901 105.16 27.5301 105.68C27.6601 106.19 27.9201 106.66 27.9101 107.2C27.9001 107.23 27.8801 107.26 27.8701 107.28C27.3801 107.43 26.8801 107.58 26.3901 107.73C26.3701 107.71 26.3301 107.69 26.3201 107.67C26.2801 107.54 26.2401 107.42 26.2001 107.29C22.2801 94.35 18.3501 81.42 14.4301 68.48L14.3101 68.07C14.3101 68.07 14.3301 68.01 14.3401 68.01C14.8001 67.87 15.2601 67.73 15.7201 67.59V67.6Z" fill="#010101"/>
<path d="M21.96 65.81C25.96 78.99 29.96 92.18 33.96 105.36C33.96 105.37 33.96 105.39 33.96 105.4C33.95 105.42 33.95 105.45 33.94 105.45C33.45 105.6 32.95 105.75 32.46 105.9C32.23 105.77 32.2 105.52 32.14 105.31C31.8 104.21 31.46 103.12 31.14 102.02C27.79 90.26 24.07 78.61 20.58 66.89C20.52 66.7 20.43 66.52 20.44 66.26C20.93 66.09 21.43 65.89 21.98 65.82L21.96 65.81Z" fill="#010101"/>
<path d="M15.25 32.71C15.74 32.56 16.24 32.41 16.73 32.26C16.75 32.28 16.79 32.3 16.8 32.32C16.83 32.41 16.86 32.51 16.89 32.61C18.36 37.46 19.83 42.31 21.3 47.16C21.33 47.27 21.38 47.38 21.39 47.49C21.39 47.51 21.38 47.53 21.37 47.54C20.88 47.69 20.38 47.84 19.89 47.99C19.86 47.97 19.83 47.96 19.81 47.94C19.57 47.66 19.52 47.31 19.42 46.98C18.79 44.78 18.09 42.59 17.44 40.39C16.74 38.1 16.07 35.81 15.34 33.53C15.26 33.27 15.12 33 15.26 32.71H15.25Z" fill="#010101"/>
<path d="M6.14 52.16C5.65 52.31 5.15 52.46 4.66 52.61C4.64 52.59 4.6 52.57 4.59 52.55C4.56 52.46 4.53 52.36 4.5 52.26C3.03 47.41 1.56 42.56 0.09 37.71C0.06 37.6 0.01 37.49 0 37.38C0 37.36 0.01 37.34 0.02 37.33C0.48 37.19 0.94 37.05 1.4 36.91C1.66 36.95 1.72 37.17 1.8 37.36C1.94 37.73 2.02 38.12 2.15 38.49C3.37 42.5 4.61 46.5 5.79 50.52C5.92 51.03 6.18 51.52 6.17 52.07C6.16 52.1 6.14 52.13 6.13 52.15L6.14 52.16Z" fill="#010101"/>
<path d="M20.14 65.32C19.15 62.04 18.15 58.77 17.16 55.49C17.13 55.48 17.1 55.46 17.07 55.45C16.53 55.52 15.98 55.55 15.59 56.01C15.54 56.25 15.63 56.47 15.69 56.69C15.82 57.26 16.15 57.75 16.31 58.31C17.08 60.94 17.89 63.55 18.69 66.17C18.74 66.34 18.74 66.54 18.93 66.68C19.41 66.51 19.94 66.44 20.41 66.18C20.41 66.16 20.4 66.13 20.39 66.11C20.29 65.85 20.21 65.59 20.15 65.31L20.14 65.32Z" fill="#010101"/>
<path d="M3.03007 36.42C3.52007 36.27 4.01007 36.12 4.51007 35.97C4.53007 35.99 4.57007 36 4.58007 36.03C4.63007 36.17 4.67007 36.31 4.71007 36.46L7.34007 45.13C6.89007 45.52 6.37007 45.66 5.78007 45.61C5.60007 45.47 5.56007 45.25 5.50007 45.04C4.70007 42.44 3.94007 39.83 3.11007 37.24C3.03007 36.98 2.89007 36.71 3.03007 36.42Z" fill="#010101"/>
<path d="M9.13993 34.56C9.62993 34.41 10.1199 34.26 10.6199 34.11C10.6399 34.13 10.6799 34.14 10.6899 34.17C10.7399 34.31 10.7799 34.45 10.8199 34.6C11.6999 37.49 12.5699 40.38 13.4499 43.27C12.9999 43.66 12.4799 43.8 11.8899 43.75C11.7099 43.61 11.6699 43.39 11.6099 43.18C10.8099 40.58 10.0499 37.97 9.21993 35.38C9.13993 35.12 8.99993 34.85 9.13993 34.56Z" fill="#010101"/>
<path d="M14.98 42.8C14.06 39.77 13.14 36.74 12.22 33.71C12.22 33.7 12.22 33.68 12.22 33.66C12.22 33.65 12.23 33.62 12.25 33.62C12.71 33.48 13.17 33.34 13.63 33.2C13.89 33.24 13.95 33.45 14.02 33.65C14.16 34.02 14.24 34.4 14.37 34.78C14.98 36.77 15.6 38.75 16.17 40.75C16.3 41.28 16.61 41.77 16.53 42.35C16.06 42.67 15.56 42.87 14.97 42.8H14.98Z" fill="#010101"/>
<path d="M6.12001 35.59C6.12001 35.59 6.10001 35.52 6.12001 35.5C6.16001 35.48 6.20001 35.46 6.25001 35.44C6.67001 35.31 7.09001 35.18 7.52001 35.06C7.78001 35.1 7.84001 35.31 7.91001 35.51C8.05001 35.88 8.13001 36.26 8.26001 36.64C8.87001 38.63 9.49001 40.61 10.06 42.61C10.19 43.15 10.52 43.64 10.41 44.23C9.95001 44.56 9.43001 44.67 8.94001 44.71C8.77001 44.6 8.76001 44.48 8.73001 44.37C7.87001 41.56 7.02001 38.74 6.17001 35.93C6.14001 35.82 6.08001 35.71 6.12001 35.59Z" fill="#010101"/>
<path d="M20.58 66.78C20.54 66.64 20.49 66.49 20.45 66.35C20.45 66.35 20.45 66.33 20.45 66.32C20.43 66.27 20.41 66.22 20.39 66.18C19.9 66.33 19.41 66.48 18.91 66.63C18.9 66.63 18.88 66.62 18.87 66.61C18.87 66.6 18.85 66.59 18.84 66.57C17.77 63.03 16.69 59.49 15.62 55.95C15.59 55.94 15.56 55.92 15.53 55.91C14.99 55.98 14.44 56.01 14.05 56.47C14 56.69 14.07 56.9 14.13 57.1C15.08 60.24 16.03 63.38 16.99 66.52C17.06 66.74 17.12 66.97 17.33 67.1C17.37 67.1 17.41 67.08 17.4 67.04C17.38 66.94 17.36 66.85 17.33 66.76C16.49 63.98 15.64 61.19 14.8 58.41C14.76 58.27 14.71 58.12 14.67 57.98C14.67 57.95 14.69 57.92 14.69 57.89C15.1 57.76 15.52 57.64 15.93 57.52C15.94 57.52 15.96 57.53 15.97 57.54C15.97 57.55 15.99 57.56 16 57.58C16.04 57.71 16.08 57.83 16.12 57.96C16.96 60.73 17.8 63.49 18.64 66.26C18.68 66.4 18.72 66.55 18.77 66.69C18.77 66.72 18.82 66.73 18.84 66.75C19.32 66.61 19.79 66.46 20.27 66.32C20.28 66.32 20.3 66.33 20.31 66.34C20.31 66.35 20.33 66.36 20.33 66.38C23.87 78.04 27.4 89.69 30.94 101.35C30.84 101.57 30.91 101.77 30.97 101.98C31.31 103.13 31.66 104.27 32.01 105.41C32.06 105.58 32.12 105.76 32.25 105.89C32.28 105.91 32.31 105.92 32.33 105.94C32.36 105.93 32.39 105.91 32.42 105.9L20.55 66.78H20.58Z" fill="#ACB3BC"/>
<path d="M32.3599 105.93L32.4599 105.9C32.6099 106.39 32.7599 106.89 32.9099 107.38C32.8899 107.4 32.8799 107.44 32.8499 107.45C31.5499 107.85 30.2399 108.24 28.9399 108.64C28.7699 108.69 28.5899 108.75 28.4199 108.8C28.4099 108.8 28.3899 108.8 28.3699 108.8C28.3599 108.8 28.3299 108.79 28.3299 108.78C28.1799 108.29 28.0299 107.79 27.8799 107.3C27.9999 107.1 28.2099 107.03 28.4199 106.97C29.5299 106.63 30.6299 106.29 31.7399 105.96C31.9499 105.9 32.1499 105.83 32.3699 105.93H32.3599Z" fill="#020202"/>
<path d="M19.8901 47.99C20.1901 48.99 20.4901 49.98 20.8001 50.98C20.8001 50.99 20.8001 51.01 20.8001 51.02C20.8001 51.03 20.7801 51.05 20.7701 51.06C20.2801 51.21 19.7901 51.36 19.3001 51.51C19.2701 51.49 19.2501 51.48 19.2201 51.46C18.7801 50.53 18.5201 49.55 18.3101 48.55C18.3101 48.49 18.3401 48.43 18.3901 48.38C18.8601 48.13 19.3401 47.89 19.9001 47.99H19.8901Z" fill="#020202"/>
<path d="M8.58989 54.75C8.09989 54.9 7.60989 55.05 7.11989 55.2C7.10989 55.2 7.08989 55.2 7.07989 55.18C7.06989 55.17 7.04989 55.16 7.04989 55.15C6.74989 54.15 6.43989 53.16 6.13989 52.16C6.53989 51.77 7.03989 51.69 7.55989 51.67C7.68989 51.71 7.80989 51.79 7.84989 51.92C8.16989 52.82 8.51989 53.71 8.62989 54.67C8.61989 54.7 8.59989 54.73 8.58989 54.76V54.75Z" fill="#020202"/>
<path d="M6.12001 35.59L8.86001 44.61C8.86001 44.61 8.91001 44.64 8.93001 44.64C9.42001 44.49 9.91001 44.34 10.41 44.19C10.45 44.24 10.46 44.29 10.42 44.34C10.11 44.65 9.63001 44.58 9.29001 44.86C9.20001 45.3 9.57001 45.68 9.47001 46.12C9.44001 46.18 9.40001 46.2 9.34001 46.18C8.95001 45.91 9.07001 45.38 8.75001 45.04C8.36001 45.01 8.00001 45.15 7.65001 45.35C7.63001 45.73 7.74001 46.04 7.93001 46.35C8.40001 46.45 8.79001 46.09 9.24001 46.15C9.30001 46.17 9.34001 46.2 9.38001 46.24C9.38001 46.3 9.35001 46.35 9.30001 46.39C8.84001 46.65 8.34001 46.75 7.84001 46.87C7.32001 46.89 6.84001 47.2 6.28001 47.16C5.93001 46.76 5.86001 46.26 5.76001 45.77C5.76001 45.71 5.78001 45.65 5.82001 45.59L7.35001 45.13C7.81001 44.99 8.27001 44.85 8.73001 44.71C8.73001 44.68 8.76001 44.65 8.75001 44.62C8.71001 44.48 8.67001 44.33 8.62001 44.19C7.79001 41.44 6.95001 38.69 6.12001 35.94C6.09001 35.85 6.07001 35.75 6.05001 35.66C6.05001 35.62 6.08001 35.6 6.12001 35.6V35.59Z" fill="#ADB3BB"/>
<path d="M8.11007 36.65L7.66007 35.17C7.66007 35.17 7.58007 35.12 7.54007 35.1C7.53007 35.1 7.53007 35.07 7.52007 35.05L7.07007 33.57C7.11007 33.47 7.19007 33.49 7.25007 33.46C7.52007 33.84 7.46007 34.35 7.75007 34.72C8.25007 34.83 8.66007 34.38 9.14007 34.56C10.0701 37.62 10.9901 40.67 11.9201 43.73C12.3301 44.03 12.2101 44.6 12.5301 44.95C12.8401 45.03 13.1001 44.83 13.3901 44.81C13.5401 44.8 13.7901 44.62 13.8201 44.97C13.3801 45.31 12.8701 45.4 12.2401 45.44C11.7801 44.43 11.5501 43.35 11.2201 42.3C10.6001 40.35 10.0501 38.37 9.41007 36.45C8.89007 36.32 8.52007 36.69 8.09007 36.64L8.11007 36.65Z" fill="#C1C5CB"/>
<path d="M5.80996 45.58L5.83996 45.68C5.44996 45.65 5.46996 45.3 5.38996 45.06C4.75996 43.04 4.14996 41.01 3.53996 38.98C3.46996 38.75 3.42996 38.49 3.23996 38.29C2.79996 38.18 2.42996 38.55 1.99996 38.5L1.54996 37.02C1.54996 37.02 1.46996 36.97 1.42996 36.95C1.41996 36.95 1.41996 36.92 1.40996 36.9L0.959961 35.42C0.999961 35.32 1.07996 35.34 1.13996 35.31C1.40996 35.69 1.33996 36.2 1.64996 36.57C2.12996 36.67 2.54996 36.23 3.02996 36.4C3.95996 39.46 4.87996 42.51 5.80996 45.57V45.58Z" fill="#C1C5CB"/>
<path d="M14.2199 34.8L13.7699 33.32C13.7699 33.32 13.6899 33.27 13.6499 33.25C13.6399 33.25 13.6399 33.22 13.6299 33.2C13.4799 32.71 13.3399 32.23 13.1899 31.74C13.1899 31.73 13.1899 31.71 13.1899 31.69C13.2199 31.62 13.2999 31.64 13.3599 31.61C13.6299 31.99 13.5599 32.5 13.8699 32.87C14.3499 32.97 14.7699 32.53 15.2499 32.7C16.0199 35.25 16.7899 37.79 17.5699 40.34C17.5399 40.36 17.5199 40.37 17.4899 40.39C17.4299 40.37 17.3799 40.33 17.3399 40.28C17.1199 39.9 17.0399 39.47 16.9199 39.06C16.5199 37.76 16.1299 36.46 15.7299 35.16C15.6699 34.96 15.6199 34.74 15.4699 34.57C15.0199 34.46 14.6499 34.83 14.2099 34.78L14.2199 34.8Z" fill="#C1C5CB"/>
<path d="M13.8499 44.92C13.8499 44.92 13.8299 44.85 13.7899 44.85C13.7399 44.85 13.6899 44.86 13.6499 44.88C13.2799 44.99 12.9199 45.1 12.5499 45.21C12.4999 45.22 12.4599 45.23 12.4199 45.24C12.3999 45.23 12.3699 45.22 12.3699 45.21C12.2199 44.72 12.0699 44.23 11.9199 43.73L13.4499 43.27L14.9799 42.81L16.5099 42.35C16.5099 42.35 16.5599 42.45 16.5199 42.5C16.2099 42.8 15.7399 42.74 15.3999 43.01C15.2899 43.45 15.6799 43.84 15.5699 44.29C15.5399 44.35 15.4999 44.36 15.4399 44.34C15.0599 44.06 15.1799 43.53 14.8499 43.19C14.4699 43.16 14.1299 43.33 13.7699 43.47C13.7299 43.88 13.8499 44.2 14.0499 44.51C14.5399 44.61 14.9399 44.18 15.4199 44.33C15.4799 44.36 15.4999 44.41 15.4699 44.47C15.0499 44.8 14.5299 44.88 14.0199 44.98C13.9599 44.98 13.8999 44.96 13.8399 44.92H13.8499Z" fill="#969DA8"/>
<path d="M19.29 51.51C19.44 52 19.5899 52.49 19.7299 52.98C19.7299 52.99 19.7299 53.01 19.7199 53.02C19.7099 53.03 19.7 53.05 19.69 53.05C19.2 53.2 18.7099 53.35 18.2199 53.5C18.1899 53.49 18.1699 53.47 18.1399 53.46C17.8699 53.02 17.74 52.54 17.7 52.04C17.71 51.98 17.74 51.93 17.79 51.88C18.26 51.66 18.73 51.41 19.28 51.51H19.29Z" fill="#030303"/>
<path d="M18.2199 53.5C18.3699 53.99 18.5199 54.48 18.6599 54.97C18.6599 54.98 18.6599 55 18.6499 55.01C18.6399 55.02 18.6299 55.04 18.6199 55.04C18.1299 55.19 17.6399 55.34 17.1499 55.49C16.7599 55.09 16.6999 54.56 16.6299 54.05C16.6299 53.99 16.6699 53.93 16.7099 53.88C17.1799 53.63 17.6599 53.4 18.2099 53.5H18.2199Z" fill="#030303"/>
<path d="M3.03008 36.42C2.54008 36.57 2.05008 36.72 1.57008 36.86C1.56008 36.86 1.54008 36.86 1.53008 36.86C1.52008 36.86 1.50008 36.84 1.49008 36.83C1.36008 36.39 1.22008 35.95 1.08008 35.49C1.10008 35.46 1.13008 35.42 1.15008 35.38C1.15008 35.38 1.15008 35.35 1.14008 35.33C1.60008 35.19 2.05008 35.05 2.51008 34.91C2.52008 34.91 2.54008 34.91 2.55008 34.92C2.56008 34.93 2.58008 34.94 2.58008 34.95C2.73008 35.44 2.88008 35.93 3.03008 36.42Z" fill="#030303"/>
<path d="M9.13993 34.56L7.64993 35.01C7.64993 35.01 7.59993 34.98 7.58993 34.97C7.45993 34.53 7.31993 34.09 7.17993 33.63C7.19993 33.6 7.22993 33.56 7.24993 33.52C7.24993 33.52 7.24993 33.49 7.23993 33.47C7.69993 33.33 8.14993 33.19 8.60993 33.05C8.61993 33.05 8.63993 33.05 8.64993 33.06C8.65993 33.07 8.67993 33.08 8.67993 33.09C8.82993 33.58 8.97993 34.07 9.12993 34.56H9.13993Z" fill="#030303"/>
<path d="M15.25 32.71C14.76 32.86 14.27 33.01 13.79 33.15C13.78 33.15 13.76 33.15 13.75 33.15C13.74 33.15 13.72 33.13 13.71 33.12C13.58 32.68 13.44 32.24 13.3 31.78C13.32 31.75 13.35 31.71 13.37 31.67C13.37 31.67 13.37 31.64 13.36 31.62C13.82 31.48 14.27 31.34 14.73 31.2C14.74 31.2 14.76 31.2 14.77 31.21C14.78 31.22 14.8 31.23 14.8 31.24C14.95 31.73 15.1 32.22 15.25 32.71Z" fill="#030303"/>
<path d="M10.5801 55.81C10.0901 55.96 9.60009 56.11 9.11009 56.25C9.10009 56.25 9.08009 56.25 9.07009 56.24C9.06009 56.23 9.04009 56.22 9.04009 56.21C8.89009 55.72 8.74009 55.23 8.59009 54.74C9.05009 54.37 9.56009 54.16 10.1701 54.32C10.4801 54.73 10.6001 55.21 10.6201 55.72C10.6101 55.75 10.5901 55.78 10.5801 55.8V55.81Z" fill="#030303"/>
<path d="M12.5801 56.88L11.0501 57.34L10.5901 55.81C11.0201 55.43 11.5301 55.31 12.0801 55.35C12.1401 55.37 12.1801 55.41 12.2301 55.45C12.4501 55.87 12.6101 56.31 12.6201 56.8C12.6101 56.83 12.5901 56.85 12.5801 56.88Z" fill="#030303"/>
<path d="M26.9401 104.24C23.2401 92.05 19.5401 79.86 15.8501 67.67C16.3401 67.52 16.8401 67.37 17.3301 67.22C17.3501 67.24 17.3901 67.26 17.4001 67.28C17.4501 67.42 17.4901 67.57 17.5301 67.71C21.1801 79.73 24.8201 91.75 28.4701 103.78C28.4501 103.81 28.4401 103.83 28.4201 103.86C27.9601 104.12 27.4901 104.34 26.9401 104.24Z" fill="#F3F4F5"/>
<path d="M14.1001 56.42C15.1801 59.98 16.2601 63.55 17.3401 67.11C16.8501 67.26 16.3601 67.41 15.8601 67.56C15.8401 67.54 15.8001 67.53 15.7901 67.5C15.7401 67.36 15.7001 67.21 15.6601 67.07C14.6301 63.67 13.6001 60.27 12.5701 56.88C12.9801 56.5 13.4901 56.42 14.0101 56.38C14.0401 56.39 14.0701 56.41 14.0901 56.42H14.1001Z" fill="#010101"/>
<path d="M32.3599 105.93L27.8699 107.29L27.4099 105.76C27.7099 105.35 28.2699 105.47 28.6399 105.15C28.7399 104.68 28.2899 104.26 28.4699 103.77C28.9599 103.62 29.4499 103.47 29.9499 103.32C29.9499 103.29 29.9799 103.26 29.9799 103.23C29.8599 102.82 29.7299 102.4 29.6099 101.99C29.5899 101.93 29.5599 101.87 29.5699 101.8C29.5699 101.79 29.5799 101.76 29.5999 101.76C30.0599 101.62 30.5199 101.48 30.9799 101.34C31.4399 102.87 31.9099 104.4 32.3699 105.92L32.3599 105.93Z" fill="#ADB4BD"/>
<path d="M28.4699 103.77C28.6199 104.26 28.7699 104.75 28.9099 105.24C28.9099 105.25 28.9099 105.27 28.8999 105.28C28.8899 105.29 28.8799 105.31 28.8699 105.31C28.3799 105.46 27.8899 105.61 27.3999 105.76L26.9399 104.23L28.4699 103.77Z" fill="#D0D3D9"/>
<path d="M17.47 40.38L17.57 40.35C18.34 42.9 19.11 45.44 19.89 47.99L18.36 48.45C17.95 48.03 17.89 47.5 17.85 46.98C18.14 46.54 18.67 46.63 19 46.34C19.1 46.1 18.98 45.89 18.92 45.67C18.47 44.16 18 42.65 17.55 41.14C17.48 40.89 17.35 40.64 17.48 40.37L17.47 40.38Z" fill="#ADB4BD"/>
<path d="M2 38.5C2 38.5 2.04 38.5 2.05 38.48C2.08 38.44 2.1 38.4 2.12 38.36L3.36 37.98C3.36 37.98 3.42 38.01 3.43 38.04C3.53 38.37 3.63 38.71 3.73 39.04C4.38 41.17 5.02 43.3 5.67 45.43C5.69 45.51 5.72 45.58 5.76 45.66C5.78 45.69 5.82 45.69 5.85 45.66C5.99 46.12 6.13 46.57 6.27 47.03C6.27 47.04 6.29 47.05 6.3 47.06C6.31 47.06 6.33 47.08 6.34 47.07C6.78 46.94 7.22 46.8 7.68 46.66C7.71 46.68 7.75 46.71 7.79 46.73C7.79 46.73 7.82 46.73 7.84 46.72C8.23 47 8.12 47.53 8.43 47.87C8.81 47.89 9.15 47.75 9.49 47.57C9.61 47.11 9.18 46.71 9.36 46.26C9.79 45.88 10.33 45.8 10.82 45.75C11.09 45.91 11.15 46.14 11.22 46.36C12.02 48.97 12.81 51.59 13.6 54.21C13.67 54.43 13.74 54.65 13.62 54.95C13.2 55.18 12.71 55.37 12.17 55.38C11.91 55.29 11.88 55.05 11.8 54.84C11.71 54.6 11.69 54.32 11.49 54.12C11.01 54.04 10.6 54.46 10.11 54.3C9.86 54.11 9.83 53.82 9.74 53.56C9.51 52.89 9.38 52.18 9.07 51.55C8.56 51.45 8.16 51.86 7.68 51.73C7.42 51.56 7.39 51.27 7.3 51.01C7.23 50.83 7.21 50.63 7.04 50.47C6.58 50.38 6.16 50.82 5.68 50.64L2 38.51V38.5Z" fill="#E7E8EB"/>
<path d="M5.66992 50.63C6.15992 50.48 6.64992 50.33 7.13992 50.19C7.14992 50.19 7.16992 50.19 7.17992 50.2C7.18992 50.21 7.20992 50.22 7.20992 50.23C7.35992 50.72 7.50992 51.21 7.65992 51.7C7.63992 51.75 7.60992 51.76 7.55992 51.73L6.12992 52.16L5.66992 50.63Z" fill="#ADB4BD"/>
<path d="M16.6901 53.96L17.1501 55.49L15.6201 55.95C15.2001 55.52 15.1301 54.98 15.1101 54.39C15.6101 54.1 16.1001 53.84 16.6901 53.96Z" fill="#979EA9"/>
<path d="M16.6901 53.96C16.2001 54.11 15.7101 54.26 15.2201 54.41C15.2101 54.41 15.2001 54.43 15.1901 54.44C15.1901 54.45 15.1701 54.47 15.1801 54.48C15.3301 54.97 15.4801 55.46 15.6201 55.95L14.0901 56.41C13.7001 56.14 13.8101 55.61 13.5101 55.28C13.0401 55.17 12.6201 55.62 12.1301 55.44C12.1001 55.43 12.0801 55.41 12.0801 55.38C12.0801 55.36 12.0801 55.34 12.1001 55.34C12.5901 55.19 13.0901 55.04 13.5801 54.89C13.5801 54.86 13.6101 54.83 13.6001 54.8C13.5801 54.72 13.5501 54.64 13.5301 54.56C12.6801 51.75 11.8201 48.93 10.9701 46.12C10.9401 46.03 10.9301 45.93 10.8801 45.85C10.8601 45.84 10.8401 45.82 10.8301 45.82C10.3401 45.97 9.84007 46.12 9.35007 46.27L9.32007 46.17L9.42007 46.14C9.69007 45.75 10.2201 45.86 10.5501 45.56C10.6601 45.12 10.2301 44.73 10.4201 44.27L10.3901 44.17L9.93007 42.64C10.3401 42.27 10.8201 42.12 11.3601 42.21L12.3001 45.32C12.3001 45.32 12.3601 45.35 12.3701 45.34C12.8601 45.19 13.3501 45.04 13.8401 44.89L13.9401 44.86C14.3301 45.14 14.2201 45.67 14.5301 46.01C14.9101 46.03 15.2501 45.89 15.5901 45.71C15.7101 45.25 15.2801 44.85 15.4601 44.4L15.4301 44.3L15.5301 44.27C15.8001 43.88 16.3301 43.99 16.6601 43.69C16.7701 43.25 16.3501 42.86 16.5301 42.4L16.5001 42.3L16.0401 40.77C16.4501 40.4 16.9301 40.25 17.4701 40.34C18.0801 42.36 18.7001 44.38 19.3101 46.4C19.3101 46.41 19.3001 46.43 19.2901 46.45C19.1901 46.52 19.0801 46.53 18.9701 46.56C18.8401 46.6 18.7201 46.64 18.5901 46.68C18.4801 46.71 18.3701 46.75 18.2601 46.78C18.1501 46.82 18.0401 46.83 17.9401 46.89C17.9301 46.91 17.9101 46.93 17.9101 46.94C18.0601 47.43 18.2101 47.93 18.3601 48.42C18.0601 48.83 17.5001 48.71 17.1501 49.04C17.0801 49.36 17.2401 49.65 17.3201 49.94C17.4601 50.43 17.6201 50.92 17.7601 51.41C17.8101 51.59 17.8501 51.76 17.7601 51.94C17.4601 52.35 16.9001 52.23 16.5301 52.55C16.4301 53.02 16.8801 53.44 16.7001 53.93L16.6901 53.96Z" fill="#C2C7CD"/>
<path d="M17.47 40.38L16.04 40.81C15.43 38.8 14.82 36.8 14.22 34.79C14.24 34.79 14.26 34.79 14.27 34.77C14.3 34.73 14.32 34.69 14.34 34.65L15.58 34.27C15.58 34.27 15.64 34.31 15.65 34.33C15.8 34.82 15.95 35.31 16.1 35.8L17.48 40.36L17.47 40.38Z" fill="#E7E8EB"/>
<path d="M11.3601 42.23L9.93011 42.66L8.11011 36.64C8.11011 36.64 8.15011 36.64 8.16011 36.62C8.19011 36.58 8.21011 36.54 8.23011 36.5L9.47011 36.12C9.47011 36.12 9.53011 36.16 9.54011 36.18C9.69011 36.67 9.84011 37.16 9.99011 37.65L11.3701 42.21L11.3601 42.23Z" fill="#E7E8EB"/>
<path d="M17.7601 51.97C17.4601 50.97 17.1601 49.98 16.8501 48.98C16.8501 48.97 16.8501 48.95 16.8501 48.94C16.8501 48.93 16.8701 48.91 16.8801 48.9C17.3701 48.75 17.8601 48.6 18.3501 48.45L19.2801 51.51L17.7501 51.97H17.7601Z" fill="#979EA9"/>
<path d="M7.57007 51.72L7.67007 51.69C8.16007 51.54 8.65007 51.39 9.14007 51.24C9.15007 51.24 9.17007 51.24 9.18007 51.26C9.19007 51.27 9.21007 51.28 9.21007 51.29C9.51007 52.29 9.82007 53.28 10.1201 54.28C10.1501 54.29 10.1701 54.31 10.1601 54.34C10.1601 54.36 10.1601 54.38 10.1501 54.38C10.1301 54.38 10.1101 54.4 10.1001 54.39C10.0501 54.37 10.0101 54.35 9.97007 54.33L8.59007 54.75L7.71007 51.84C7.71007 51.84 7.63007 51.79 7.59007 51.77C7.58007 51.77 7.58007 51.74 7.57007 51.72Z" fill="#ADB4BD"/>
<path d="M9.36008 46.28C9.50008 46.74 9.64008 47.2 9.78008 47.66C9.76008 47.68 9.75008 47.72 9.72008 47.73C9.26008 47.87 8.80008 48.01 8.34008 48.15C8.33008 48.15 8.31008 48.15 8.29008 48.15C8.28008 48.15 8.25008 48.14 8.25008 48.12C8.11008 47.66 7.97008 47.2 7.83008 46.74L9.36008 46.28Z" fill="#ACB3BC"/>
<path d="M9.32989 46.19C8.83989 46.34 8.34989 46.49 7.85989 46.64C7.84989 46.64 7.82989 46.64 7.81989 46.63C7.80989 46.62 7.78989 46.61 7.78989 46.6C7.64989 46.16 7.51989 45.72 7.38989 45.27C7.48989 45.16 7.62989 45.17 7.74989 45.12C7.86989 45.07 7.99989 45.04 8.12989 45C8.25989 44.96 8.37989 44.92 8.50989 44.89C8.63989 44.86 8.74989 44.79 8.87989 44.79C8.89989 44.8 8.91989 44.81 8.91989 44.82C9.05989 45.28 9.19989 45.74 9.33989 46.2L9.32989 46.19Z" fill="#030303"/>
<path d="M10.42 44.29C10.56 44.75 10.7 45.2 10.83 45.66C10.83 45.67 10.83 45.69 10.82 45.7C10.81 45.71 10.8 45.73 10.79 45.73C10.33 45.87 9.88001 46.01 9.42001 46.15C9.28001 45.69 9.14001 45.24 9.01001 44.78C9.01001 44.77 9.01001 44.75 9.02001 44.74C9.03001 44.73 9.04001 44.71 9.05001 44.71C9.51001 44.57 9.96001 44.43 10.42 44.29Z" fill="#ACB3BC"/>
<path d="M15.4699 44.43C15.6099 44.89 15.7499 45.35 15.8899 45.81C15.8699 45.83 15.8599 45.87 15.8299 45.88C15.3699 46.02 14.9099 46.16 14.4499 46.3C14.4399 46.3 14.4199 46.3 14.3999 46.3C14.3899 46.3 14.3599 46.29 14.3599 46.27C14.2199 45.81 14.0799 45.35 13.9399 44.89L15.4699 44.43Z" fill="#969DA8"/>
<path d="M15.44 44.33C14.95 44.48 14.46 44.63 13.97 44.78C13.96 44.78 13.94 44.78 13.93 44.77C13.92 44.76 13.9 44.75 13.9 44.74C13.76 44.3 13.63 43.86 13.5 43.41C13.6 43.3 13.74 43.31 13.86 43.26C13.98 43.21 14.11 43.18 14.24 43.14L14.62 43.02L14.98 42.91C14.98 42.91 15.04 42.94 15.04 42.95C15.18 43.41 15.32 43.87 15.46 44.33H15.44Z" fill="#030303"/>
<path d="M16.5301 42.44C16.6701 42.9 16.8101 43.35 16.9401 43.81C16.9401 43.82 16.9401 43.84 16.9301 43.85C16.9201 43.86 16.9101 43.88 16.9001 43.88C16.4401 44.02 15.9901 44.16 15.5301 44.3C15.3901 43.84 15.2501 43.39 15.1201 42.93C15.1201 42.92 15.1201 42.9 15.1301 42.89C15.1401 42.88 15.1501 42.86 15.1601 42.86C15.6201 42.72 16.0701 42.58 16.5301 42.44Z" fill="#969DA8"/>
<path d="M16.69 53.96C16.54 53.47 16.39 52.98 16.25 52.49C16.25 52.48 16.25 52.46 16.26 52.45C16.27 52.44 16.28 52.42 16.29 52.42C16.78 52.27 17.27 52.12 17.76 51.97L18.22 53.5L16.69 53.96Z" fill="#979EA9"/>
<path d="M10.1501 54.38L10.1201 54.28C10.6101 54.13 11.1001 53.98 11.5901 53.84C11.6001 53.84 11.6201 53.84 11.6301 53.85C11.6401 53.86 11.6601 53.87 11.6601 53.88C11.8101 54.37 11.9601 54.86 12.1101 55.35L12.1401 55.45C12.1401 55.45 12.1001 55.47 12.0901 55.46C12.0401 55.44 12.0001 55.42 11.9601 55.4L10.5801 55.82L10.1501 54.39V54.38Z" fill="#ADB4BD"/>
<path d="M12.1399 55.45L13.6299 55C13.6299 55 13.6799 55.04 13.6899 55.05C13.8299 55.51 13.9699 55.96 14.1099 56.42L12.5799 56.88L12.1499 55.45H12.1399Z" fill="#ADB4BD"/>
<path d="M134.08 33.32C135.12 33.6 136.16 33.89 137.2 34.17C137.21 34.17 137.23 34.17 137.25 34.17C137.26 34.17 137.28 34.15 137.29 34.14C137.42 33.68 137.54 33.21 137.67 32.75C137.69 32.72 137.69 32.68 137.66 32.66C137.63 32.64 137.6 32.63 137.57 32.62C136.59 32.35 135.62 32.09 134.64 31.82C134.61 31.82 134.58 31.82 134.54 31.82C134.53 31.82 134.5 31.83 134.5 31.85C134.36 32.35 134.23 32.85 134.09 33.35L134.08 33.32Z" fill="#020202"/>
<path d="M6.12001 35.5L6.01001 35.55L8.77001 44.7L8.99001 44.62L9.08001 44.38" fill="#010101"/>
<path d="M1.13993 35.33L0.929932 35.39L1.40993 36.91L1.70993 36.82L1.54993 35.83L1.13993 35.33Z" fill="#010101"/>
<path d="M7.25005 33.47L7.05005 33.53L7.52005 35.06L7.82005 34.97L7.67005 33.98L7.25005 33.47Z" fill="#010101"/>
<path d="M13.3599 31.62L13.1599 31.68L13.6299 33.2L13.9299 33.11L13.7799 32.12L13.3599 31.62Z" fill="#010101"/>
<path d="M7.34009 45.12L7.38009 45.25L8.91009 44.81L8.84009 44.67L7.34009 45.12Z" fill="#030303"/>
<path d="M13.45 43.27L13.49 43.4L15.02 42.96L14.96 42.82L13.45 43.27Z" fill="#030303"/>
<path d="M132.12 71C132.62 71.14 133.12 71.27 133.62 71.41C133.64 71.39 133.68 71.37 133.69 71.35C133.73 71.21 133.77 71.06 133.81 70.92C136.14 62.36 138.48 53.8 140.81 45.24C140.3 45.02 139.78 44.87 139.23 44.81C139.03 44.97 138.99 45.21 138.93 45.43C136.67 53.71 134.41 62 132.15 70.28C132.09 70.49 132.02 70.7 132.07 70.92C132.09 70.95 132.1 70.98 132.12 71.01V71Z" fill="#010101"/>
<path d="M121.81 95.92C121.77 95.99 121.73 96.07 121.68 96.13C121.21 96.19 120.8 95.94 120.37 95.88C119.95 95.72 119.49 95.7 119 95.39C119.91 91.99 120.85 88.58 121.77 85.2C122.33 85.11 122.72 85.39 123.15 85.38C123.25 85.37 123.34 85.35 123.36 85.23C123.3 85.06 123.25 84.88 123.21 84.71C123.18 84.77 123.14 84.83 123.09 84.89C122.65 84.99 122.24 84.71 121.81 84.66C121.32 84.55 120.85 84.32 120.33 84.34C120.27 84.36 120.22 84.41 120.2 84.47C118.66 90.09 117.13 95.72 115.6 101.33C115.87 101.78 116.41 101.66 116.76 101.96C116.89 102.41 116.49 102.84 116.66 103.37C117.09 103.68 117.62 103.84 118.2 103.8C118.46 103.62 118.49 103.32 118.56 103.06C119.1 101.08 119.64 99.11 120.18 97.13C120.25 96.89 120.28 96.64 120.47 96.44C120.92 96.36 121.31 96.65 121.75 96.63C121.8 96.63 121.85 96.62 121.89 96.59C121.85 96.37 121.84 96.15 121.83 95.92H121.81Z" fill="#C2C7CD"/>
<path d="M121.95 96.47C121.92 96.54 121.91 96.55 121.83 96.54C121.61 96.68 121.56 96.91 121.5 97.14C120.64 100.29 119.78 103.44 118.92 106.59C118.87 106.78 118.81 106.98 118.85 107.18C118.87 107.21 118.88 107.24 118.9 107.27C119.4 107.41 119.9 107.54 120.4 107.68C120.42 107.66 120.46 107.64 120.47 107.62C120.5 107.54 120.52 107.46 120.54 107.38C121.47 103.98 122.39 100.59 123.32 97.19C123.35 97.1 123.39 97 123.38 96.91C123.37 96.89 123.36 96.87 123.35 96.86C122.88 96.73 122.42 96.6 121.95 96.48V96.47Z" fill="#010101"/>
<path d="M123.36 85.22C123.33 85.29 123.32 85.3 123.24 85.29C123.02 85.43 122.97 85.66 122.91 85.89C122.05 89.04 121.19 92.19 120.33 95.34C120.27 95.56 120.2 95.79 120.31 96.02C120.81 96.16 121.31 96.29 121.8 96.43C121.81 96.43 121.83 96.42 121.84 96.41C121.84 96.4 121.86 96.39 121.87 96.37C122.83 92.84 123.8 89.3 124.76 85.77C124.74 85.73 124.71 85.69 124.69 85.64C124.69 85.63 124.69 85.61 124.7 85.59L123.35 85.22H123.36Z" fill="#010101"/>
<path d="M114.27 106C114.13 106.5 114 107 113.86 107.5C113.88 107.52 113.9 107.56 113.92 107.57C115.25 107.94 116.59 108.3 117.93 108.66L118.44 108.8C118.44 108.8 118.5 108.77 118.5 108.76C118.64 108.26 118.77 107.76 118.91 107.26C118.49 106.84 117.9 106.87 117.39 106.69C116.55 106.43 115.7 106.22 114.85 105.99C114.66 105.94 114.46 105.9 114.27 105.99V106Z" fill="#020202"/>
<path d="M132.51 33C133.01 33.14 133.51 33.27 134.01 33.41C134.01 33.44 134.04 33.47 134.04 33.5C134.01 33.65 133.96 33.79 133.92 33.94C130.31 47.17 126.7 60.4 123.1 73.64C123.13 73.65 123.16 73.67 123.19 73.68C123.22 73.66 123.25 73.65 123.27 73.63C123.32 73.58 123.35 73.53 123.38 73.47C123.99 71.46 124.51 69.43 125.05 67.4C125.14 67.17 125.19 66.92 125.26 66.68C128.04 56.48 130.82 46.28 133.61 36.08C133.69 35.79 133.72 35.49 133.93 35.24C134.35 35.11 134.73 35.44 135.15 35.35C135.42 35.23 135.44 34.97 135.52 34.74C135.59 34.54 135.6 34.32 135.8 34.11C136.24 34.11 136.66 34.32 137.11 34.4C137.61 34.51 138.09 34.75 138.62 34.73C138.65 34.72 138.67 34.7 138.7 34.69C138.72 34.66 138.72 34.62 138.69 34.6C138.65 34.58 138.6 34.56 138.56 34.55C138.15 34.44 137.73 34.32 137.33 34.22C137.29 34.18 137.29 34.15 137.3 34.12C137.42 33.69 137.53 33.26 137.65 32.83C137.66 32.79 137.64 32.76 137.57 32.73C137.18 33 137.32 33.54 137.01 33.87C136.69 33.95 136.4 33.8 136.1 33.72C135.6 33.6 135.11 33.45 134.61 33.32C134.43 33.27 134.25 33.24 134.08 33.33C133.59 33.2 133.1 33.06 132.61 32.93C132.57 32.92 132.54 32.94 132.51 33.01V33Z" fill="#A3AAB4"/>
<path d="M130.15 72.12C130.64 72.25 131.14 72.39 131.63 72.52C131.64 72.52 131.66 72.52 131.67 72.51C131.68 72.5 131.7 72.49 131.7 72.48C131.84 71.99 131.97 71.49 132.11 71C131.7 70.62 131.18 70.59 130.67 70.51C130.61 70.51 130.55 70.54 130.5 70.58C130.24 71.03 130.11 71.52 130.1 72.04C130.11 72.07 130.13 72.09 130.14 72.12H130.15Z" fill="#030303"/>
<path d="M128.18 73.25C128.67 73.38 129.17 73.52 129.66 73.65C129.67 73.65 129.69 73.65 129.7 73.64C129.71 73.63 129.73 73.62 129.73 73.61C129.87 73.12 130 72.62 130.14 72.13C129.73 71.75 129.21 71.72 128.7 71.64C128.64 71.64 128.58 71.67 128.53 71.71C128.27 72.16 128.14 72.65 128.13 73.17C128.14 73.2 128.16 73.22 128.17 73.25H128.18Z" fill="#030303"/>
<path d="M126.21 74.37L127.76 74.79L128.18 73.24C127.77 72.86 127.25 72.83 126.74 72.75C126.68 72.75 126.62 72.78 126.57 72.82C126.31 73.27 126.18 73.76 126.17 74.28C126.18 74.31 126.2 74.33 126.21 74.36V74.37Z" fill="#030303"/>
<path d="M114.27 106L117.36 106.84C117.42 106.8 117.48 106.76 117.5 106.7C117.84 105.8 118.09 104.88 118.26 103.93C118.27 103.87 118.24 103.8 118.2 103.74C117.7 103.6 117.2 103.47 116.7 103.33C116.69 103.3 116.66 103.27 116.67 103.24C116.78 102.82 116.9 102.4 117.01 101.98C117.03 101.92 117.06 101.86 117.05 101.79C117.05 101.78 117.03 101.75 117.02 101.75C116.57 101.63 116.12 101.5 115.67 101.38C115.67 101.35 115.64 101.32 115.65 101.29C115.68 101.14 115.73 101 115.77 100.86C117.27 95.36 118.77 89.86 120.27 84.36C120.25 84.32 120.21 84.31 120.17 84.33C118.2 91.55 116.23 98.76 114.27 105.98V106Z" fill="#A5ABB5"/>
<path d="M120.17 84.35L120.27 84.38C120.49 84.24 120.54 84.01 120.6 83.78C121.46 80.63 122.32 77.48 123.18 74.33C123.24 74.11 123.33 73.88 123.2 73.65L123.1 73.62C122.12 77.2 121.15 80.77 120.17 84.35Z" fill="#C2C7CD"/>
<path d="M139.26 44.8L137.71 44.38C137.71 44.38 137.65 44.42 137.63 44.43C137.45 44.62 137.41 44.88 137.35 45.12C135.11 53.33 132.87 61.54 130.64 69.75C130.57 70.02 130.43 70.29 130.58 70.57L132.13 70.99C134.51 62.26 136.89 53.53 139.27 44.8H139.26Z" fill="#F3F4F5"/>
<path d="M121.71 84.77C122.21 84.91 122.71 85.04 123.2 85.18C123.22 85.16 123.26 85.15 123.27 85.12C123.31 84.98 123.35 84.83 123.39 84.69C124.33 81.25 125.27 77.81 126.2 74.37C125.77 73.99 125.24 73.93 124.7 73.9C124.64 73.92 124.58 73.96 124.54 74.01C124.4 74.2 124.35 74.43 124.29 74.66C123.44 77.76 122.6 80.85 121.76 83.95C121.69 84.22 121.57 84.49 121.7 84.78L121.71 84.77Z" fill="#010101"/>
<path d="M118.2 103.75L117.36 106.84L118.91 107.26L121.84 96.53L120.32 96.12C120.32 96.12 120.27 96.17 120.27 96.18C119.58 98.7 118.89 101.22 118.21 103.74L118.2 103.75Z" fill="#F3F4F5"/>
<path d="M120.31 96.02C121.29 92.44 122.26 88.87 123.24 85.29C122.74 85.15 122.24 85.02 121.74 84.88C121.72 84.9 121.68 84.92 121.67 84.94C121.64 85.02 121.62 85.1 121.6 85.18C120.68 88.54 119.77 91.91 118.85 95.27C118.82 95.36 118.78 95.46 118.79 95.55C118.8 95.57 118.81 95.6 118.82 95.6C119.32 95.74 119.82 95.87 120.32 96.01L120.31 96.02Z" fill="#F3F4F5"/>
<path d="M121.71 84.77C122.69 81.16 123.68 77.55 124.66 73.95C124.24 73.59 123.76 73.46 123.21 73.55L123.18 73.65C122.2 77.23 121.23 80.8 120.25 84.38L121.7 84.78L121.71 84.77Z" fill="#F3F4F5"/>
<path d="M136.73 35.81L136.76 35.71C136.76 35.71 136.73 35.66 136.71 35.63C136.24 35.39 135.76 35.18 135.21 35.29C134.74 35.16 134.28 35.04 133.81 34.91C133.79 34.93 133.75 34.95 133.74 34.97C133.7 35.11 133.66 35.26 133.62 35.4C130.71 46.05 127.81 56.71 124.9 67.36C124.95 67.43 125 67.5 125.08 67.53C125.93 67.83 126.79 68.08 127.68 68.23C127.74 68.24 127.81 68.22 127.91 68.17C128.28 67.88 128.18 67.32 128.48 66.95C128.95 66.84 129.38 67.22 129.86 67.07C130.15 66.85 130.18 66.5 130.27 66.18C132.19 59.14 134.11 52.1 136.03 45.06C136.1 44.79 136.13 44.5 136.35 44.27C136.81 44.14 137.24 44.57 137.71 44.37L137.74 44.27C137.74 44.27 137.71 44.22 137.69 44.19C137.24 43.9 136.71 43.86 136.22 43.71C135.8 43.55 135.34 43.53 134.87 43.24C135.21 41.89 135.58 40.54 135.97 39.21C136.49 39.09 136.9 39.44 137.35 39.35C137.38 39.34 137.4 39.32 137.43 39.31L137.46 39.21C137.46 39.21 137.43 39.16 137.41 39.13C136.97 38.84 136.44 38.8 135.95 38.65C135.53 38.51 135.08 38.45 134.6 38.21C134.76 37.34 135.02 36.5 135.27 35.68C135.79 35.57 136.19 35.92 136.65 35.83C136.68 35.82 136.7 35.8 136.73 35.79V35.81Z" fill="#C2C7CD"/>
<path d="M137.71 44.38C137.21 44.24 136.71 44.11 136.21 43.97C136.19 43.99 136.15 44.01 136.14 44.03C136.1 44.17 136.06 44.32 136.02 44.46C134.01 51.82 132.01 59.17 130 66.53L129.87 66.99C129.87 66.99 129.8 67.03 129.76 67.02C129.31 66.9 128.86 66.77 128.41 66.65C128.37 66.64 128.35 66.63 128.31 66.67C128.25 66.78 128.24 66.91 128.2 67.04C128.16 67.17 128.13 67.3 128.09 67.43C128.06 67.54 128.03 67.66 128 67.77C127.96 67.9 127.95 68.03 127.89 68.14C127.87 68.15 127.85 68.17 127.84 68.16C126.86 67.89 125.88 67.63 124.89 67.36L123.2 73.55L124.65 73.95C125.05 73.63 124.92 73.08 125.23 72.7C125.7 72.58 126.14 73.02 126.62 72.83C127.02 72.51 126.89 71.96 127.2 71.58C127.67 71.46 128.11 71.9 128.59 71.71C128.99 71.39 128.86 70.84 129.17 70.46C129.64 70.34 130.08 70.78 130.56 70.59C132.94 61.86 135.32 53.13 137.7 44.4L137.71 44.38Z" fill="#A5ABB5"/>
<path d="M136.73 35.81L138.24 36.22C138.24 36.22 138.29 36.18 138.3 36.16C138.44 35.64 138.59 35.11 138.73 34.59L137.18 34.17C136.8 34.65 136.65 35.2 136.73 35.81Z" fill="#030303"/>
<path d="M136.75 35.71L137.15 34.26L135.64 33.85C135.64 33.85 135.59 33.89 135.58 33.9C135.45 34.36 135.33 34.83 135.2 35.29L136.75 35.71Z" fill="#F2F3F4"/>
<path d="M130.57 70.57C130.08 70.44 129.58 70.3 129.09 70.17C129.08 70.17 129.06 70.17 129.05 70.18C129.04 70.19 129.02 70.2 129.02 70.21C128.88 70.7 128.75 71.2 128.61 71.69L130.16 72.11L130.58 70.56L130.57 70.57Z" fill="#F3F4F4"/>
<path d="M128.6 71.7C128.11 71.57 127.61 71.43 127.12 71.3C127.11 71.3 127.09 71.3 127.08 71.31C127.07 71.32 127.05 71.33 127.05 71.34C126.91 71.83 126.78 72.33 126.64 72.82L128.19 73.24L128.61 71.69L128.6 71.7Z" fill="#F3F4F4"/>
<path d="M126.63 72.82C126.14 72.69 125.64 72.55 125.15 72.42C125.14 72.42 125.12 72.42 125.11 72.43C125.1 72.44 125.08 72.45 125.08 72.46C124.94 72.95 124.81 73.45 124.67 73.94L126.22 74.36L126.64 72.81L126.63 72.82Z" fill="#F3F4F4"/>
<path d="M140.52 40.16L138.97 39.74C138.77 39.88 138.71 40.1 138.65 40.31C138.33 41.48 138.01 42.65 137.69 43.82C137.63 44.04 137.57 44.26 137.68 44.48C138.18 44.62 138.67 44.75 139.17 44.89C139.18 44.89 139.2 44.88 139.21 44.87C139.22 44.86 139.24 44.85 139.24 44.83C139.67 43.27 140.09 41.72 140.51 40.16H140.52Z" fill="#020202"/>
<path d="M137.74 44.29L138.98 39.75L137.43 39.33C137.23 39.46 137.17 39.67 137.12 39.88C136.81 41 136.5 42.12 136.2 43.24C136.14 43.45 136.09 43.66 136.2 43.87L137.75 44.29H137.74Z" fill="#F3F4F5"/>
<path d="M139.82 36.65L138.27 36.23C138.15 36.31 138.07 36.42 138.03 36.55C137.79 37.33 137.57 38.12 137.38 38.92C137.35 39.06 137.36 39.19 137.42 39.32C137.92 39.46 138.41 39.59 138.91 39.72C138.92 39.72 138.94 39.71 138.95 39.7C138.96 39.69 138.98 39.68 138.98 39.66C139.26 38.65 139.53 37.64 139.81 36.64L139.82 36.65Z" fill="#020202"/>
<path d="M137.46 39.23L138.28 36.23L136.73 35.81C136.61 35.88 136.53 35.99 136.49 36.12C136.26 36.88 136.05 37.65 135.86 38.42C135.83 38.55 135.84 38.68 135.91 38.81L137.46 39.23Z" fill="#F3F4F4"/>
<path d="M136.19 43.86C136.6 42.35 137.02 40.83 137.43 39.32C136.93 39.18 136.43 39.05 135.93 38.91C135.91 38.93 135.87 38.95 135.86 38.97C135.48 40.34 135.11 41.7 134.74 43.07L134.65 43.39C134.65 43.39 134.68 43.45 134.69 43.45C135.19 43.59 135.69 43.72 136.19 43.86Z" fill="#A5ABB5"/>
<path d="M135.91 38.8L136.73 35.8C136.23 35.66 135.73 35.53 135.23 35.39C135.21 35.41 135.17 35.43 135.16 35.45C134.9 36.4 134.64 37.35 134.38 38.3C134.38 38.31 134.38 38.33 134.38 38.35C134.38 38.36 134.39 38.39 134.41 38.39C134.91 38.53 135.41 38.66 135.91 38.8Z" fill="#A5ABB5"/>
<path d="M132.53 32.91C125.93 57.11 119.34 81.3 112.74 105.5C112.74 105.51 112.74 105.53 112.74 105.54C112.74 105.56 112.75 105.58 112.77 105.59C113.27 105.73 113.77 105.86 114.27 106C114.3 105.98 114.33 105.96 114.35 105.95C114.53 105.76 114.57 105.5 114.63 105.26C115.01 103.86 115.38 102.45 115.76 101.05C117.26 95.49 118.79 89.93 120.3 84.37C121.27 80.79 122.25 77.21 123.23 73.62C126.88 60.21 130.54 46.8 134.21 33.35C133.58 33.15 133.07 32.96 132.52 32.91H132.53Z" fill="#010101"/>
</g>
<defs>
<clipPath id="clip0_688_562">
<rect width="140.8" height="140" fill="white"/>
</clipPath>
</defs>
</svg>
